<svg xmlns="http://www.w3.org/2000/svg" xmlns:xlink="http://www.w3.org/1999/xlink" viewBox="0 0 24.93 30.22"><defs><style>.cls-1{fill:none;}.cls-2{clip-path:url(#clip-path);}</style><clipPath id="clip-path" transform="translate(-0.36 -0.02)"><rect class="cls-1" width="25.5" height="30.75"/></clipPath></defs><g id="Capa_2" data-name="Capa 2"><g id="Capa_1-2" data-name="Capa 1"><g class="cls-2"><path d="M23,28c1,.72-4.21,1.41-3.57.65C18.62,29.67,24.17,29,23,28Z" transform="translate(-0.36 -0.02)"/><path d="M25.05,28.48c.07.81-9.11,2.26-7.15.87a3.22,3.22,0,0,0,2.37-2.22c.3-2.36-.46-4.7-.69-7-.85-7.87-3.77-1.71-5.1-12.94a22.8,22.8,0,0,0,4.75.18c.46,0,.93,0,1.38-.11.26-.13.2.21.27.38.51,2.49,1.13,5.56-.63,7.68a2.08,2.08,0,0,0-.53.86c-.35,2.07.48,4.14.78,6.18.39,1.53.42,3.26,1.38,4.56A3.76,3.76,0,0,0,23.81,28C24.17,28.11,25.15,27.87,25.05,28.48ZM14.27,5.39a29.69,29.69,0,0,1-.15-3.53,8.46,8.46,0,0,0,4.76-1A55.12,55.12,0,0,1,20.74,7a17.71,17.71,0,0,0-3.09-.11,25.37,25.37,0,0,1,3,.19,34,34,0,0,1-6.05,0,25.54,25.54,0,0,1,3-.19,12.94,12.94,0,0,0-3.18.16c-.07-.56-.14-1.12-.2-1.69Zm-.54-1.08C13,7.57,12.62,12.21,10,14.52a7.12,7.12,0,0,0-2,1.95,45.36,45.36,0,0,0-1.49,4.44c-.66,2.14-1.26,4.45-.67,6.68a5.32,5.32,0,0,0,1.89,1.46c.14.07.26.15.25.32-.37.28-1.42-.09-1.9-.15A44.88,44.88,0,0,1,1.69,28c-.26-.12-1.2-.3-1.06-.66.65-.16,1.43,0,2.1-.18,2.36-.88,2.62-4.21,3.43-6.3C7.63,16.33,7,16.57,6,12.34a16.11,16.11,0,0,1,.78-5.23A59.89,59.89,0,0,1,9.17.21a25.3,25.3,0,0,0,4.41,1.37c.19.06.42,0,.45.22a11.87,11.87,0,0,1-.3,2.51Zm11.55,24c-.21-.55-.89-.35-1.35-.4-1.89,0-2.66-2.08-2.85-3.71-.34-1.82-.72-3.82-1-5.64-.8-4,1.67-2.19,1.65-7.16a35.6,35.6,0,0,0-2.25-9.3A7.85,7.85,0,0,0,18.83.6a5.87,5.87,0,0,0-2.45.25,7,7,0,0,1,2.4-.12,9.56,9.56,0,0,1-3.5,1c-2.63.29.3-.68,1.1-.85-3.3.73-1.26.73-4.63-.14.72.25,1.44.49,2.15.78A42.2,42.2,0,0,1,9.52.2c.75.14,1.49.33,2.23.51A16.84,16.84,0,0,0,9.25,0c-.06,0-.12,0-.15.06a46.08,46.08,0,0,0-3.24,9.7c-1,3.77,1.8,5.57.56,9.15C5.73,20.76,4.86,27,2.57,27c-.52.11-1.91-.15-2.16.2C0,28,2,28.26,2.46,28.52a23.49,23.49,0,0,0,4.93,1.2c.65.12,1.21-.3.54-.82a5.82,5.82,0,0,1-2-1.33c-.78-2.09.16-4.53.76-6.59.67-1.68.88-3.67,2.08-5.06.87-.84,2.06-1.47,2.65-2.6,1.62-2.9,2-6.3,2.53-9.52.26,3.41.33,8.72,2.86,11.21,1.38,1.13,1.75,1.29,2.1,3.15s.65,4,1,6a7.85,7.85,0,0,1,.1,3.34c-.27.9-1.22,1.31-2,1.65-.24.07-.53.11-.65.37,0,1.27,2.46.57,3.25.56S25.48,29.52,25.28,28.26Z" transform="translate(-0.36 -0.02)"/><path d="M20.62,14.45a3.09,3.09,0,0,0,.69-2.13,2.55,2.55,0,0,1-3.8,2.36A6.27,6.27,0,0,1,15.58,12a5.52,5.52,0,0,0,1.84,2.82A2.64,2.64,0,0,0,20.62,14.45Z" transform="translate(-0.36 -0.02)"/><path d="M15.47,2a6.1,6.1,0,0,0,2.65-.72A9.92,9.92,0,0,1,14.55,2,3.54,3.54,0,0,0,15.47,2Z" transform="translate(-0.36 -0.02)"/><path d="M13.3,5.53a13.93,13.93,0,0,0-3-.13,24.61,24.61,0,0,1,2.84.18,28.47,28.47,0,0,1-5.69,0,24.64,24.64,0,0,1,2.85-.18c-.45,0-2.94-.15-3,.23a20.75,20.75,0,0,0,4.46.17C12,5.76,13.48,5.82,13.3,5.53Z" transform="translate(-0.36 -0.02)"/><path d="M5,28.42c-.61-.22-2.38-.56-2.65-1.09-.11.58,4.72,2.07,4,.89C6.72,28.89,5.32,28.48,5,28.42Z" transform="translate(-0.36 -0.02)"/><path d="M5.51,28.1a3.68,3.68,0,0,1-2.2-.81,2.53,2.53,0,0,0,2.35.77A.28.28,0,0,1,5.51,28.1Z" transform="translate(-0.36 -0.02)"/><path d="M11.45,1.24a9.51,9.51,0,0,0,1.84.36q-1.81-.45-3.57-1A8.92,8.92,0,0,0,11.45,1.24Z" transform="translate(-0.36 -0.02)"/><path d="M11.08,13c-1,1.91-4,2.46-4.73,0-.47-1.73,0-3.56.38-5.27-.46,1.94-1.25,4.3-.08,6.12,1,1.35,3,1,4-.13a7.64,7.64,0,0,0,1.48-3.23A12.69,12.69,0,0,1,11.08,13Z" transform="translate(-0.36 -0.02)"/><path d="M17.41,8.65c.22.09.24-.29,0-.23a.12.12,0,0,0-.09.11A.11.11,0,0,0,17.41,8.65Z" transform="translate(-0.36 -0.02)"/><path d="M17.15,9.57c.19,0,.14-.3,0-.24a.11.11,0,0,0-.08.14A.11.11,0,0,0,17.15,9.57Z" transform="translate(-0.36 -0.02)"/><path d="M17.86,9.69c.14,0,.1-.23,0-.19a.09.09,0,0,0-.06.11C17.77,9.66,17.8,9.69,17.86,9.69Z" transform="translate(-0.36 -0.02)"/><path d="M17.65,10.39a.09.09,0,0,0,.11,0,.08.08,0,0,0,0-.1C17.72,10.11,17.5,10.3,17.65,10.39Z" transform="translate(-0.36 -0.02)"/><path d="M18.94,12.36c-.12,0-.06.22.06.18S19.05,12.31,18.94,12.36Z" transform="translate(-0.36 -0.02)"/><path d="M19.33,13.42a.09.09,0,0,0-.06.13.08.08,0,0,0,.12.06.09.09,0,0,0,.06-.13A.08.08,0,0,0,19.33,13.42Z" transform="translate(-0.36 -0.02)"/><path d="M19.08,14.36a.08.08,0,1,0,0,.11A.08.08,0,0,0,19.08,14.36Z" transform="translate(-0.36 -0.02)"/><path d="M19.35,11.59c.15,0,.11-.23,0-.18a.08.08,0,0,0-.06.1A.07.07,0,0,0,19.35,11.59Z" transform="translate(-0.36 -0.02)"/><path d="M17.24,10.52c-.1-.06-.19.12-.08.17S17.36,10.57,17.24,10.52Z" transform="translate(-0.36 -0.02)"/><path d="M17.34,11.45a.11.11,0,0,0,.11,0,.09.09,0,0,0,0-.11C17.41,11.17,17.19,11.36,17.34,11.45Z" transform="translate(-0.36 -0.02)"/><path d="M17.9,12c-.14-.07-.2.18,0,.18a.1.1,0,0,0,0-.18Z" transform="translate(-0.36 -0.02)"/><path d="M18.94,11.57c0-.12-.22-.06-.18.06a.09.09,0,0,0,.18-.06Z" transform="translate(-0.36 -0.02)"/><path d="M18.11,13.25c.16.07.18-.22,0-.18a.1.1,0,0,0-.06.09A.08.08,0,0,0,18.11,13.25Z" transform="translate(-0.36 -0.02)"/><path d="M18.62,8.71c.19,0,.14-.3,0-.24A.12.12,0,0,0,18.62,8.71Z" transform="translate(-0.36 -0.02)"/><path d="M18.17,9.5a.13.13,0,0,0,.11-.23C18.14,9.2,18,9.43,18.17,9.5Z" transform="translate(-0.36 -0.02)"/><path d="M18.8,9.69c.11.05.2-.12.09-.17s-.1,0-.13,0A.09.09,0,0,0,18.8,9.69Z" transform="translate(-0.36 -0.02)"/><path d="M18.11,10.93a.11.11,0,0,0,.11,0,.1.1,0,0,0,0-.1C18.18,10.64,18,10.84,18.11,10.93Z" transform="translate(-0.36 -0.02)"/><path d="M16.06,9c.15,0,.11-.24,0-.19a.08.08,0,0,0-.06.1A.1.1,0,0,0,16.06,9Z" transform="translate(-0.36 -0.02)"/><path d="M18.68,14a.06.06,0,0,0-.1,0s0,.09,0,.11a.07.07,0,0,0,.11,0A.07.07,0,0,0,18.68,14Z" transform="translate(-0.36 -0.02)"/><path d="M16.67,9.2a.08.08,0,0,0,.1,0,.07.07,0,0,0,0-.1C16.74,8.91,16.52,9.11,16.67,9.2Z" transform="translate(-0.36 -0.02)"/><path d="M18.85,10.29c-.12,0-.06.23.06.18a.09.09,0,0,0-.06-.18Z" transform="translate(-0.36 -0.02)"/><path d="M17.33,9.07c.14,0,.1-.23,0-.18a.08.08,0,0,0-.07.1A.09.09,0,0,0,17.33,9.07Z" transform="translate(-0.36 -0.02)"/><path d="M18.34,12.17c0,.12.22.06.18-.06a.09.09,0,0,0-.18.06Z" transform="translate(-0.36 -0.02)"/><path d="M18.73,12.63a.09.09,0,1,0-.18.06A.09.09,0,0,0,18.73,12.63Z" transform="translate(-0.36 -0.02)"/><path d="M19,13.2a.1.1,0,0,0,.19-.06.09.09,0,0,0-.13-.06A.08.08,0,0,0,19,13.2Z" transform="translate(-0.36 -0.02)"/><path d="M10.16,7.63a.13.13,0,0,0-.08.24A.13.13,0,0,0,10.16,7.63Z" transform="translate(-0.36 -0.02)"/><path d="M10.56,8.7a.13.13,0,0,0-.24-.08A.13.13,0,0,0,10.56,8.7Z" transform="translate(-0.36 -0.02)"/><path d="M9.76,8.72a.09.09,0,0,0-.12.06.08.08,0,0,0,.06.12C9.82,8.94,9.88,8.75,9.76,8.72Z" transform="translate(-0.36 -0.02)"/><path d="M9.87,9.61c.11,0,.17-.14.06-.18a.08.08,0,0,0-.12.06C9.79,9.55,9.8,9.59,9.87,9.61Z" transform="translate(-0.36 -0.02)"/><path d="M8.53,11.63c0,.12.15.18.18.06A.09.09,0,0,0,8.53,11.63Z" transform="translate(-0.36 -0.02)"/><path d="M8.15,12.77a.09.09,0,0,0,.17,0C8.37,12.58,8.07,12.61,8.15,12.77Z" transform="translate(-0.36 -0.02)"/><path d="M8.57,13.57c-.05,0-.08,0-.1,0a.07.07,0,0,0,0,.1c.05,0,.08,0,.1-.05S8.62,13.59,8.57,13.57Z" transform="translate(-0.36 -0.02)"/><path d="M8.2,10.8c.12,0,.18-.15.07-.18a.08.08,0,0,0-.12.06A.09.09,0,0,0,8.2,10.8Z" transform="translate(-0.36 -0.02)"/><path d="M10.36,9.91c.06,0,.09,0,.11-.06s0-.1-.05-.12A.09.09,0,0,0,10.36,9.91Z" transform="translate(-0.36 -0.02)"/><path d="M10.24,10.48a.09.09,0,0,0-.13.07.08.08,0,0,0,.06.12.1.1,0,1,0,.07-.19Z" transform="translate(-0.36 -0.02)"/><path d="M9.76,11.18a.08.08,0,0,0-.12.06c0,.07,0,.11.06.13a.1.1,0,0,0,.06-.19Z" transform="translate(-0.36 -0.02)"/><path d="M8.77,10.72a.08.08,0,0,0-.12.06q0,.09.06.12a.09.09,0,1,0,.06-.18Z" transform="translate(-0.36 -0.02)"/><path d="M9.47,12.29a.09.09,0,0,0-.06.18C9.53,12.51,9.59,12.32,9.47,12.29Z" transform="translate(-0.36 -0.02)"/><path d="M9,7.68a.13.13,0,0,0-.08.24A.13.13,0,0,0,9,7.68Z" transform="translate(-0.36 -0.02)"/><path d="M9.4,8.48a.13.13,0,0,0-.08.24A.13.13,0,0,0,9.4,8.48Z" transform="translate(-0.36 -0.02)"/><path d="M8.83,8.77c-.05-.11-.23,0-.17.09s.07.06.13,0S8.85,8.83,8.83,8.77Z" transform="translate(-0.36 -0.02)"/><path d="M9.46,10a.09.09,0,1,0,.06.12C9.54,10,9.53,10,9.46,10Z" transform="translate(-0.36 -0.02)"/><path d="M11.5,8.21a.09.09,0,1,0-.06-.12A.08.08,0,0,0,11.5,8.21Z" transform="translate(-0.36 -0.02)"/><path d="M9,13.16c-.05,0-.08,0-.1.05a.07.07,0,0,0,.05.1A.07.07,0,0,0,9,13.26.07.07,0,0,0,9,13.16Z" transform="translate(-0.36 -0.02)"/><path d="M10.88,8.42A.09.09,0,0,0,11,8.34a.09.09,0,0,0-.06-.11C10.77,8.19,10.73,8.42,10.88,8.42Z" transform="translate(-0.36 -0.02)"/><path d="M8.62,9.56c0,.07,0,.11.06.13s.1,0,.12-.07S8.66,9.45,8.62,9.56Z" transform="translate(-0.36 -0.02)"/><path d="M10.29,8.1c-.11,0-.17.14-.06.18S10.41,8.13,10.29,8.1Z" transform="translate(-0.36 -0.02)"/><path d="M9.19,11.26a.08.08,0,0,0-.12.06.09.09,0,0,0,.06.13c.06,0,.1,0,.12-.07A.08.08,0,0,0,9.19,11.26Z" transform="translate(-0.36 -0.02)"/><path d="M9,11.9A.1.1,0,0,0,9,11.78c-.06,0-.1,0-.12.06s0,.1.06.11A.09.09,0,0,0,9,11.9Z" transform="translate(-0.36 -0.02)"/><path d="M8.48,12.29c-.11,0-.18.15-.06.19A.1.1,0,0,0,8.48,12.29Z" transform="translate(-0.36 -0.02)"/></g></g></g></svg>