<svg xmlns="http://www.w3.org/2000/svg" xmlns:xlink="http://www.w3.org/1999/xlink" viewBox="0 0 26.91 26.98"><defs><style>.cls-1{fill:none;}.cls-2{clip-path:url(#clip-path);}</style><clipPath id="clip-path" transform="translate(-0.05 -0.02)"><rect class="cls-1" width="27" height="27"/></clipPath></defs><g id="Capa_2" data-name="Capa 2"><g id="Capa_1-2" data-name="Capa 1"><g class="cls-2"><path d="M11.85,12.17a1.39,1.39,0,0,0-1.39,1.39v3h3a1.41,1.41,0,0,0,1-2.39,1.38,1.38,0,0,0-1-.4.24.24,0,0,1-.22-.22,1.38,1.38,0,0,0-.4-1A1.43,1.43,0,0,0,11.85,12.17ZM10.25,17a.21.21,0,0,1-.21-.21V13.56a1.81,1.81,0,0,1,3.09-1.28,1.78,1.78,0,0,1,.52,1.08,1.85,1.85,0,0,1,1.09.53,1.76,1.76,0,0,1,.52,1.28A1.79,1.79,0,0,1,13.45,17Z" transform="translate(-0.05 -0.02)"/><path d="M11.09,13.78a.22.22,0,0,1-.21-.22,1,1,0,0,1,1-1h0a.94.94,0,0,1,.69.29.21.21,0,0,1,0,.29.21.21,0,0,1-.3,0,.52.52,0,0,0-.39-.17h0a.55.55,0,0,0-.55.55A.21.21,0,0,1,11.09,13.78Z" transform="translate(-0.05 -0.02)"/><path d="M1.75,17.55,9.48,25.3,20,14.81l-5.44-10Zm7.73,8.26a.22.22,0,0,1-.15-.06l-8-8a.22.22,0,0,1,0-.3L14.41,4.26a.19.19,0,0,1,.18-.06.21.21,0,0,1,.15.11l5.65,10.43a.21.21,0,0,1,0,.25L9.63,25.75A.22.22,0,0,1,9.48,25.81Z" transform="translate(-0.05 -0.02)"/><path d="M20.8,14.46a.21.21,0,0,1-.18-.11L15,3.91a.2.2,0,0,1,.08-.28.21.21,0,0,1,.29.08L21,14.15a.21.21,0,0,1-.09.28A.17.17,0,0,1,20.8,14.46Z" transform="translate(-0.05 -0.02)"/><path d="M.26,18.36a.21.21,0,0,1-.2-.15.21.21,0,0,1,.13-.27l.9-.29a.2.2,0,0,1,.26.13.21.21,0,0,1-.13.27l-.89.3Z" transform="translate(-0.05 -0.02)"/><path d="M8.89,27H8.82a.2.2,0,0,1-.13-.26l.29-.9a.21.21,0,0,1,.27-.13.2.2,0,0,1,.13.26l-.3.9A.19.19,0,0,1,8.89,27Z" transform="translate(-0.05 -0.02)"/><path d="M8.89,27a.2.2,0,0,1-.15-.06L.11,18.29a.21.21,0,0,1,0-.29.2.2,0,0,1,.3,0L9,26.64a.2.2,0,0,1,0,.3A.2.2,0,0,1,8.89,27Z" transform="translate(-0.05 -0.02)"/><path d="M16,3.81a.2.2,0,0,1-.15-.06.2.2,0,0,1,0-.3L19.17.08a.21.21,0,0,1,.29,0,.2.2,0,0,1,0,.3L16.1,3.75A.2.2,0,0,1,16,3.81Z" transform="translate(-0.05 -0.02)"/><path d="M21.19,13.48a.18.18,0,0,1-.15-.07.21.21,0,0,1,0-.29L26.6,7.54a.21.21,0,1,1,.3.3l-5.56,5.57A.19.19,0,0,1,21.19,13.48Z" transform="translate(-0.05 -0.02)"/><path d="M26.75,7.9a.22.22,0,0,1-.15-.06L19.17.38a.2.2,0,0,1,0-.3.21.21,0,0,1,.29,0L26.9,7.54a.22.22,0,0,1,0,.3A.22.22,0,0,1,26.75,7.9Z" transform="translate(-0.05 -0.02)"/><path d="M20.5,14.76a.2.2,0,0,1-.14-.06.2.2,0,0,1,0-.3l.29-.3a.21.21,0,0,1,.3.3l-.3.3A.2.2,0,0,1,20.5,14.76Z" transform="translate(-0.05 -0.02)"/><path d="M14.85,4.32a.2.2,0,0,1-.14-.06.2.2,0,0,1,0-.3l.29-.3a.21.21,0,1,1,.3.3l-.3.3A.2.2,0,0,1,14.85,4.32Z" transform="translate(-0.05 -0.02)"/><path d="M17.79,6.74a.24.24,0,0,1-.15-.06.22.22,0,0,1,0-.3L21,3.07a.2.2,0,0,1,.3,0,.21.21,0,0,1,0,.29L17.94,6.68A.2.2,0,0,1,17.79,6.74Z" transform="translate(-0.05 -0.02)"/><path d="M19.91,10a.19.19,0,0,1-.15-.07.21.21,0,0,1,0-.29l3.87-3.88a.21.21,0,1,1,.3.3L20.06,9.92A.19.19,0,0,1,19.91,10Z" transform="translate(-0.05 -0.02)"/><path d="M23.48,10a.19.19,0,0,1-.15-.07L17.08,3.66a.21.21,0,1,1,.3-.3l6.25,6.27a.22.22,0,0,1,0,.3A.22.22,0,0,1,23.48,10Z" transform="translate(-0.05 -0.02)"/><path d="M9.78,22.53a.2.2,0,0,1-.15-.06L4.57,17.4a.21.21,0,0,1,.3-.3l5.06,5.07a.22.22,0,0,1,0,.3A.22.22,0,0,1,9.78,22.53Z" transform="translate(-0.05 -0.02)"/><path d="M8,21.93a.24.24,0,0,1-.15-.06L5.17,19.19a.21.21,0,1,1,.3-.3l2.67,2.68a.22.22,0,0,1,0,.3A.2.2,0,0,1,8,21.93Z" transform="translate(-0.05 -0.02)"/><path d="M1.45,19.55a.22.22,0,0,1-.15-.06.22.22,0,0,1,0-.3L1.45,19a.21.21,0,1,1,.3.3l-.15.15A.22.22,0,0,1,1.45,19.55Z" transform="translate(-0.05 -0.02)"/><path d="M2.34,20.44a.22.22,0,0,1-.15-.06.22.22,0,0,1,0-.3l.15-.15a.21.21,0,1,1,.3.3l-.15.15A.2.2,0,0,1,2.34,20.44Z" transform="translate(-0.05 -0.02)"/><path d="M3.23,21.34a.2.2,0,0,1-.14-.06.2.2,0,0,1,0-.3l.14-.15a.21.21,0,1,1,.3.3l-.15.15A.2.2,0,0,1,3.23,21.34Z" transform="translate(-0.05 -0.02)"/><path d="M4.13,22.23A.2.2,0,0,1,4,22.17a.22.22,0,0,1,0-.3l.15-.15a.21.21,0,0,1,.29,0,.2.2,0,0,1,0,.3l-.14.15A.24.24,0,0,1,4.13,22.23Z" transform="translate(-0.05 -0.02)"/><path d="M5,23.13a.22.22,0,0,1-.15-.06.22.22,0,0,1,0-.3L5,22.62a.21.21,0,0,1,.3.3l-.15.15A.22.22,0,0,1,5,23.13Z" transform="translate(-0.05 -0.02)"/><path d="M5.91,24A.22.22,0,0,1,5.76,24a.22.22,0,0,1,0-.3l.15-.15a.21.21,0,1,1,.3.3L6.06,24A.2.2,0,0,1,5.91,24Z" transform="translate(-0.05 -0.02)"/><path d="M6.8,24.92a.21.21,0,0,1-.15-.07.21.21,0,0,1,0-.29l.15-.15a.2.2,0,0,1,.3,0,.22.22,0,0,1,0,.3L7,24.85A.18.18,0,0,1,6.8,24.92Z" transform="translate(-0.05 -0.02)"/><path d="M7.7,25.81a.2.2,0,0,1-.15-.06.2.2,0,0,1,0-.3l.15-.15a.21.21,0,0,1,.29,0,.2.2,0,0,1,0,.3l-.15.15A.2.2,0,0,1,7.7,25.81Z" transform="translate(-0.05 -0.02)"/></g></g></g></svg>