<svg xmlns="http://www.w3.org/2000/svg" xmlns:xlink="http://www.w3.org/1999/xlink" viewBox="0 0 32.66 111.73"><defs><style>.cls-1{fill:none;}.cls-2{clip-path:url(#clip-path);}.cls-3{fill:#eadaaa;}</style><clipPath id="clip-path" transform="translate(-0.22 -0.01)"><rect class="cls-1" width="33" height="111.75"/></clipPath></defs><g id="Capa_2" data-name="Capa 2"><g id="Capa_1-2" data-name="Capa 1"><g class="cls-2"><path class="cls-3" d="M16.23,0a1,1,0,0,0-1,1q-.43,7.7-.37,23.19h0c0,1.58,0,3.59.09,6h0q.38,16.08.46,23.16h0q.09,9.12.11,14.29h0q0,15.31.06,23.81h0q.2,11,.48,19.33a1,1,0,0,0,1.05,1h0a1,1,0,0,0,1-1q-.28-8.31-.48-19.29h0q-.09-8.47-.06-23.79h0q0-5.18-.11-14.3h0q-.08-7.08-.46-23.18c-.05-2.41-.08-4.41-.09-6q-.06-15.44.36-23.07A1,1,0,0,0,16.32,0Z" transform="translate(-0.22 -0.01)"/><path class="cls-3" d="M4.33,96.92a1,1,0,0,0,0,2H5.52L6,99H6l1.91.07h0c.46,0,1,0,1.54,0h0l3.23,0h3.43a1,1,0,0,0,0-2H12.71l-3.2,0h0L8,97H8L6.09,97H5.57l-1.23,0Z" transform="translate(-0.22 -0.01)"/><path class="cls-3" d="M17.14,71.17h0l.52,0h0L19.22,71h0l1.15-.08h0l.76-.05h0l.76,0h0l4.06-.2a1,1,0,1,1,.1,2L22,72.84h0l-.77,0h0l-.73,0h0L19.38,73h0l-1.51.15h0l-.61,0h0a1,1,0,0,1-1.06-1A1,1,0,0,1,17.14,71.17Z" transform="translate(-0.22 -0.01)"/><path class="cls-3" d="M13.23,44.51h-.67l-2,.09h0l-2.66.18h0l-1,.06h0l-1,0c-.39,0-.71,0-1,0H4.77a1,1,0,0,0-1,.94,1,1,0,0,0,.94,1.08c.31,0,.69,0,1.14,0l1,0h0L8,46.81H8c1.24-.09,2.12-.15,2.63-.17h0c.77,0,1.43-.08,2-.09h0l.64,0c.85,0,1.61,0,2.27,0h.08a1,1,0,0,0,1-.95,1,1,0,0,0-.94-1.07C14.94,44.51,14.13,44.49,13.23,44.51Z" transform="translate(-0.22 -0.01)"/><path class="cls-3" d="M27.65,20.26h-.06l-1.24.08h0l-2.09.07h0l-1.7.07h0l-1.22,0h0L19,20.59h0l-.62,0h0c-.71,0-1.37.08-2,.15a1,1,0,0,0,.12,2h.11c.55-.06,1.16-.11,1.83-.14h0l.59,0h0l2.35-.06h0l1.23,0h0l1.72-.07h0l2.12-.08h0l1.3-.07a1,1,0,0,0-.09-2Z" transform="translate(-0.22 -0.01)"/><path class="cls-3" d="M32.87,21.76l-.08.45a3.28,3.28,0,0,1-1.53,2,3.61,3.61,0,0,1-2.66.41,3.51,3.51,0,0,1-2.17-1.47,2.79,2.79,0,0,1-.39-.77L25.93,22a2.94,2.94,0,0,1,0-.89,3.2,3.2,0,0,1,1.24-2.24,3.66,3.66,0,0,1,4.93.46,3.22,3.22,0,0,1,.81,2.43" transform="translate(-0.22 -0.01)"/><path class="cls-3" d="M7.21,46.22l-.07.45a3.38,3.38,0,0,1-.2.56,3.14,3.14,0,0,1-.45.73,3.39,3.39,0,0,1-.88.75,3.51,3.51,0,0,1-1.11.43,3.35,3.35,0,0,1-.91.06A3.61,3.61,0,0,1,3,49.12a3.68,3.68,0,0,1-1.13-.46,4,4,0,0,1-.47-.34,3.91,3.91,0,0,1-.58-.66A3.2,3.2,0,0,1,.7,44.19,5,5,0,0,1,1,43.73a4.12,4.12,0,0,1,.68-.57A3.6,3.6,0,0,1,4,42.6a3.19,3.19,0,0,1,.63.12,4,4,0,0,1,.84.33,3.56,3.56,0,0,1,.91.74,3.2,3.2,0,0,1,.6,1,3.47,3.47,0,0,1,.16.55,3.27,3.27,0,0,1,0,.89" transform="translate(-0.22 -0.01)"/><path class="cls-3" d="M30.3,72l-.07.45a3.43,3.43,0,0,1-.59,1.22,3.65,3.65,0,0,1-.94.82,3.51,3.51,0,0,1-1.11.43,3.72,3.72,0,0,1-1.41,0A3.6,3.6,0,0,1,24,73.53a4.19,4.19,0,0,1-.37-.67,2.55,2.55,0,0,1-.18-.53,2.71,2.71,0,0,1-.07-1.06,3.21,3.21,0,0,1,1.23-2.19,3.57,3.57,0,0,1,2.56-.74,4.07,4.07,0,0,1,.73.14,6.64,6.64,0,0,1,.74.31,3.66,3.66,0,0,1,.91.74A3.23,3.23,0,0,1,30.3,72" transform="translate(-0.22 -0.01)"/><path class="cls-3" d="M7.69,97.7l-.08.44A3.51,3.51,0,0,1,7,99.36a3.66,3.66,0,0,1-.94.82,3.56,3.56,0,0,1-1,.41,3.65,3.65,0,0,1-1.37.06,4.16,4.16,0,0,1-1.29-.44,3.48,3.48,0,0,1-.9-.72A3.34,3.34,0,0,1,.71,97,3.51,3.51,0,0,1,1,95.9a3.88,3.88,0,0,1,.3-.48,3,3,0,0,1,.61-.6A3.63,3.63,0,0,1,3,94.24a3.12,3.12,0,0,1,.88-.17,3.31,3.31,0,0,1,.63,0,3.54,3.54,0,0,1,1.37.41,3.78,3.78,0,0,1,.93.7,3.13,3.13,0,0,1,.67,1.06,3.34,3.34,0,0,1,.2.84,4.23,4.23,0,0,1,0,.62" transform="translate(-0.22 -0.01)"/></g></g></g></svg>