<svg xmlns="http://www.w3.org/2000/svg" xmlns:xlink="http://www.w3.org/1999/xlink" viewBox="0 0 24.29 26.48"><defs><style>.cls-1,.cls-3{fill:none;}.cls-2{clip-path:url(#clip-path);}.cls-3{stroke:#000;stroke-linecap:round;stroke-linejoin:round;stroke-width:0.42px;}</style><clipPath id="clip-path" transform="translate(-0.09 -0.02)"><rect class="cls-1" width="24.75" height="27"/></clipPath></defs><g id="Capa_2" data-name="Capa 2"><g id="Capa_1-2" data-name="Capa 1"><g class="cls-2"><path class="cls-3" d="M11,16.06c-.15.11-.08.55-.09.73a11.72,11.72,0,0,1-.27,1.66A22,22,0,0,1,8.72,24c-.35.67-.79,1.43-1.58,1.6a1.83,1.83,0,0,1-1.27-.25,2.36,2.36,0,0,1-1.34-2.22c.27-1.35,2.25-1.79,3.21-1a3.16,3.16,0,0,1,.81,1.16" transform="translate(-0.09 -0.02)"/><path class="cls-3" d="M11.18,15.89c-.1,0,.2,0,.3,0L12,16c.52.07,1,.17,1.55.25,1.4.23,2.81.4,4.23.5l1,.09s.25,0,.26,0a6.74,6.74,0,0,1-.3,2.51c-.25,1.71-.15,3.85-1,5.39a2.92,2.92,0,0,1-4.36.92A1.36,1.36,0,0,1,14,23.29a3.46,3.46,0,0,1,3.47,1.08" transform="translate(-0.09 -0.02)"/><path class="cls-3" d="M22.22,13.93c0-.15.31-.34.42-.42.44-.33,1.27-.49,1.49.21.35,1.08-1.68,1.93-2.36,2.23-.17.07-.88.47-1.06.34s-.06-.83-.07-1a3.69,3.69,0,0,1,.15-2.16A1.54,1.54,0,0,1,21,12.8c.85-.91,1.12.61,1.09,1.21" transform="translate(-0.09 -0.02)"/><path class="cls-3" d="M22.09,18.18c-.1.16-.5.26-.65.51a1.26,1.26,0,0,0-.16.42c-.29,1.61,3.09,0,1.41-.81a1.74,1.74,0,0,0-.6-.13" transform="translate(-0.09 -0.02)"/><path class="cls-3" d="M17.51,12.93c-.17,0-.34.26-.4.38a.8.8,0,0,0,.4,1.11.89.89,0,0,0,1.08-1,1.09,1.09,0,0,0-.8-.68" transform="translate(-0.09 -0.02)"/><path class="cls-3" d="M14.63,5.38s0,.14,0,.18,0,.37,0,.55c0,.47.06.94.07,1.42,0,1.36.29,4-1.17,4.72-.75.4-2.33.11-1.94-1.07s1.83-1.43,2.82-1.4" transform="translate(-0.09 -0.02)"/><path class="cls-3" d="M14.69,5.3c.07-.21.66-.29.82-.34.76-.19,1.53-.36,2.28-.57.43-.12.85-.24,1.27-.38l.51-.18c.07,0,.2-.15.2-.08,0,1,.57,2.08.67,3.12a10.16,10.16,0,0,1,0,1.83,4.18,4.18,0,0,1-.22,1.16,1.58,1.58,0,0,1-2.26.81c-.74-.47-.3-1.42.3-1.79A2.3,2.3,0,0,1,19,8.61a4.91,4.91,0,0,1,1.27,0" transform="translate(-0.09 -0.02)"/><path class="cls-3" d="M15,6.69c1.61-.41,3.2-.89,4.84-1.17" transform="translate(-0.09 -0.02)"/><path class="cls-3" d="M5.94,18.58c-.06-.13.26-.09.37-.16A1.89,1.89,0,0,0,7,17.68a4.18,4.18,0,0,0,.12-2.3c0-.18,0-.59-.18-.72s-.19.44-.22.5a11,11,0,0,1-.56,1.08A29,29,0,0,1,4.5,19a2.32,2.32,0,0,1-1.2,1,1.85,1.85,0,0,1-1.68-.72c-.43-.53-.1-1.05.51-1.16a1.78,1.78,0,0,1,.46,0,2.18,2.18,0,0,1,.79.19,3.2,3.2,0,0,1,1,.71" transform="translate(-0.09 -0.02)"/><path class="cls-3" d="M2.17,13.22a1.34,1.34,0,0,1,.48-1.5c.64-.49,1.28,0,1.26.72a3.28,3.28,0,0,1-.13.75,8.07,8.07,0,0,1-.4,1.17c-.09.23-.25.93-.48,1.06s-.85-.56-.95-.62c-.58-.36-1.34-.75-1.59-1.45-.18-.51.07-1.24.7-1.13a2.19,2.19,0,0,1,1.08.69" transform="translate(-0.09 -0.02)"/><path class="cls-3" d="M5.63,5.81a9.21,9.21,0,0,1-.9,1.77,8.67,8.67,0,0,1-.89,1.2,4.06,4.06,0,0,1-.67.64C1.8,10.37,1,7.6,2.8,7.85a2.93,2.93,0,0,1,.89.3" transform="translate(-0.09 -0.02)"/><path class="cls-3" d="M5.52,6c-.07.09.17-.17.27-.15a4,4,0,0,1,.75.29c.71.28,1.45.47,2.18.69a2.28,2.28,0,0,1,.8.26s-.12.3-.13.32a9,9,0,0,1-.56.94C8.17,9.29,7,11.14,5.67,11a.84.84,0,0,1-.31-1.55,2.58,2.58,0,0,1,2.12.13" transform="translate(-0.09 -0.02)"/><path class="cls-3" d="M10.16,2.46C10,1.92,10.51.23,11.3.85a1.16,1.16,0,0,1,.3.92,5.51,5.51,0,0,1-.69,2.37c-.08.17-.26.68-.45.76s-.62-.64-.68-.69c-.47-.45-1.22-.91-1.39-1.59-.11-.44.14-.94.63-.81a1.67,1.67,0,0,1,.93.74" transform="translate(-0.09 -0.02)"/><path class="cls-3" d="M9.15,12.26c-.18-.08-.58.32-.61.46-.13.59.7,1.08,1.17.87,1-.45.29-1.46-.58-1.36" transform="translate(-0.09 -0.02)"/><path class="cls-3" d="M15.16,1.58c-.19-.09-.5.18-.59.32a.72.72,0,0,0,.42,1,.7.7,0,0,0,.89-.67,1.07,1.07,0,0,0-.75-.8" transform="translate(-0.09 -0.02)"/><path class="cls-3" d="M17.81.38c-1-.18-1.51,1.9-.34,2,1.53.1,1.65-2.48.09-2.08" transform="translate(-0.09 -0.02)"/></g></g></g></svg>