<svg xmlns="http://www.w3.org/2000/svg" xmlns:xlink="http://www.w3.org/1999/xlink" viewBox="0 0 117.84 100.03"><defs><style>.cls-1{fill:none;}.cls-2{clip-path:url(#clip-path);}.cls-3{clip-path:url(#clip-path-2);}</style><clipPath id="clip-path" transform="translate(-0.16 -0.1)"><rect class="cls-1" width="33.75" height="100.5"/></clipPath><clipPath id="clip-path-2" transform="translate(-0.16 -0.1)"><rect class="cls-1" x="34.02" y="2.57" width="84" height="96"/></clipPath></defs><g id="Capa_2" data-name="Capa 2"><g id="Capa_1-2" data-name="Capa 1"><g class="cls-2"><path d="M9.8,34.36A5.5,5.5,0,0,0,8.07,34,3.62,3.62,0,0,0,9.8,34.36Zm10.86.51c.74.23,1,.18,1.91-.28Zm-16,10.46a8,8,0,0,0-2.59,0A8,8,0,0,0,4.69,45.33Zm27,.1v-.19c-1,0-2,0-2.93,0-.15,0-.33,0-.31.23a.26.26,0,0,0,.25.23A11.46,11.46,0,0,0,31.64,45.43ZM12.12,4a10.58,10.58,0,0,1,2.75-1.34A12.53,12.53,0,0,0,13.24,1c-.22-.18-.42-.17-.49.11A21,21,0,0,0,12.12,4ZM26.66,22.53a24.34,24.34,0,0,0-.31,8.55,36,36,0,0,0,.31-8.55ZM20.14.9,19.91.8,17.8,2.65c.23.26.56.36.57.68,0,.68.6.8,1,1.07s.47,0,.5-.28C20,3.05,20.05,2,20.14.9ZM7.21,30.68c.61-3,.48-8.69-.15-9.6C6.57,24.19,7,27.33,7.21,30.68ZM16,3.3a6.67,6.67,0,0,1-1.3-.09c-.34,0-.46.18-.26.47.35.5.74,1,1.13,1.46a.84.84,0,0,0,1.33.12,4.44,4.44,0,0,0,.95-1.46c.13-.28,0-.49-.31-.49-.49,0-1,0-1.54,0ZM12.44,35.05a15.28,15.28,0,0,1-4.7-.83c-.26-.09-.4,0-.43.28-.18,1.63-.61,1.32,1.06,2a6.71,6.71,0,0,0,1,.31,5.17,5.17,0,0,0,2.28.15c.24,0,.5-.06.55-.38a7.5,7.5,0,0,0,.28-1.51Zm13.89-1.18c-1.75,1-3.7,1.13-5.6,1.56a6.5,6.5,0,0,0,.34,1.28.68.68,0,0,0,.88.57c.73-.13,1.45-.25,2.19-.34a5.94,5.94,0,0,0,2.22-1.07.47.47,0,0,0,.27-.45,3.43,3.43,0,0,0-.3-1.55ZM20.6,2a1.19,1.19,0,0,0-.16.87,19.46,19.46,0,0,0,.31,3.05,29.09,29.09,0,0,1-1,12.13c-.62,2.15-1.39,4.24-2.16,6.33a7.38,7.38,0,0,0-.53,1.88c.1,0,.18-.05.2-.09a32.31,32.31,0,0,0,3.18-5.76,36.63,36.63,0,0,0,2.37-9.62,7.42,7.42,0,0,0,0-1.49,21.43,21.43,0,0,0-1.57-6.09A3.84,3.84,0,0,0,20.6,2ZM18.24,20.61a30.76,30.76,0,0,0,2-15.67,1.8,1.8,0,0,1-1.64-.5c-.15-.11-.35-.28-.47-.06-.34.63-1,1.11-.82,2,.37,2.33.47,4.68.68,7a43.44,43.44,0,0,1,.23,5.47,4.35,4.35,0,0,0,0,1.76Zm-3.72,1.5a12.83,12.83,0,0,0-.12-2.34c-.08-1.64.08-3.29,0-4.93A26.84,26.84,0,0,1,15,7.62,3.84,3.84,0,0,0,14.18,4a.36.36,0,0,1,0-.09c-.15-.36-.37-.31-.66-.15-1.56.84-1.71,1.09-1.74,2.9v.65a46.63,46.63,0,0,0,1,8.58,35.44,35.44,0,0,0,1.4,5.59,1.08,1.08,0,0,0,.38.67ZM12.1,1.51c-.47.38-.77.64-1.09.87a3.9,3.9,0,0,0-1.7,3.36A35.15,35.15,0,0,0,12,21.09a24.48,24.48,0,0,0,3.19,5.75c.12.15.21.36.44.39,0-.08.05-.11,0-.14l-.24-.7a63.84,63.84,0,0,1-3.18-10.67c-.35-2.21-.78-4.4-.92-6.63A20.61,20.61,0,0,1,11.36,5c.15-1.11.49-2.17.74-3.5Zm4,25.34c.13-.16.22-.22.24-.3.4-1.3.81-2.6,1.29-3.87A2.28,2.28,0,0,0,17.7,22a111.46,111.46,0,0,0-.4-12.53c-.06-1-.17-2-.26-3.06,0-.17,0-.42-.17-.49a1.92,1.92,0,0,0-1.09,0c-.28.08-.25.4-.28.63a42.51,42.51,0,0,0-.59,7.21c0,.75,0,1.49,0,2.23a47.19,47.19,0,0,0,.22,7.33,9,9,0,0,0,1,3.46Zm-9,9.48a.61.61,0,0,0-.21.41C6.32,39.09,6,41.5,5.31,43.82c-.12.42.07.64.45.76,1,.32,1.88.79,2.82,1.19,1.19.51,2.41,1,3.64,1.36s1.33.29,1.71-.88l.06-.18c.93-3,1.71-6,2.53-9a2.3,2.3,0,0,0,0-1c-.26-1.53-.53-3.06-.77-4.59A4.5,4.5,0,0,1,15.85,29c.16-.4,0-.63-.28-.9A28.13,28.13,0,0,1,9.92,16.66a37.9,37.9,0,0,1-1-12.1A2.19,2.19,0,0,1,9.42,3.2c.13-.14.36-.23.33-.56A31.72,31.72,0,0,1,3.27,4.51a1.44,1.44,0,0,0-.82.57A5.56,5.56,0,0,0,1.56,6.6a12.78,12.78,0,0,0-1,5c.08,2.83.14,5.64.06,8.47s.14,5.59.08,8.38c-.1,4.44,0,8.88.13,13.31,0,.9.1,1.8.14,2.7,0,.3.12.47.45.42a21,21,0,0,1,3-.14c.27,0,.42,0,.49-.37.45-2.38.95-4.74,1.43-7.11a14.52,14.52,0,0,0,.59-4.59,21,21,0,0,1-.12-2.51,1.61,1.61,0,0,0-.56-1.31,5.5,5.5,0,0,1-.56-.62,1.36,1.36,0,0,1-.44-.67c.6.25.83.83,1.37,1.07a3.11,3.11,0,0,0-.19-1.77L4.92,24a1.14,1.14,0,0,1-.2-.78l1.56,2.7c0-2.14.34-4.2.47-6.28a7.48,7.48,0,0,0-.2-1.94c-.62-2.88-1.26-5.75-2.1-8.57a11.77,11.77,0,0,0-.76-2c-.27-.51-.5-1-.74-1.56A5.2,5.2,0,0,1,4.49,8.1c.58,2.06,1.27,4.09,1.67,6.2.26,1.34.57,2.67.88,4a32.23,32.23,0,0,1,.88,9.13c-.1,1.68-.18,3.35-.4,5-.13.94-.11,1,.83,1.2s1.81.4,2.71.62c.59.14,1.42,0,1.7.52s-.14,1.19-.28,1.79-.2.71-.94.73a9.4,9.4,0,0,1-3.62-.69,2,2,0,0,0-.85-.28Zm21,8.59a25.07,25.07,0,0,1,3.65-.07c.66,0,.67,0,.68-.65,0-1.24,0-2.49.05-3.73.13-2.94.33-5.88.25-8.83a20.9,20.9,0,0,1-.06-2.23c.25-3,.09-6.08.15-9.12,0-1.68.08-3.36.24-5a17,17,0,0,0-.08-4.73,24.78,24.78,0,0,0-1.19-4.39,2.24,2.24,0,0,0-2-1.59A17.31,17.31,0,0,1,28,4.32a22.59,22.59,0,0,1-6.43-2.54c-.17-.09-.3-.32-.62-.18.24.54.49,1.07.7,1.61a18.25,18.25,0,0,1,1.57,7.5,22,22,0,0,1-.38,2.67,32.74,32.74,0,0,1-2.46,8.26A42.29,42.29,0,0,1,17.22,27a6.3,6.3,0,0,0-.95,4.61c.44,2.88,1.09,5.72,1.5,8.6a56.48,56.48,0,0,0,1.54,7.08c.12.44.27.64.76.55a20,20,0,0,0,7.07-2.9,1.68,1.68,0,0,0,.8-1.49,12.9,12.9,0,0,0-.11-1.86c-.16-1.36-.68-2.64-.93-4a4.59,4.59,0,0,0-.25-1.35,1.17,1.17,0,0,0-.31.09c-1.36,1-3,1.07-4.58,1.25a.78.78,0,0,1-1-.64c-.16-.56-.34-1.13-.51-1.69-.12-.38,0-.55.4-.61a26.22,26.22,0,0,0,4.85-1.19c.67-.22.66-.23.54-1a26.09,26.09,0,0,1,0-9.53c.43-2.09.91-4.17,1.16-6.3A40,40,0,0,1,29.91,6.24c.08-.18.08-.42.45-.55a57.8,57.8,0,0,0-2.61,9.94,33.75,33.75,0,0,0-.35,10.2,17.9,17.9,0,0,1,1.73-1.9,2.15,2.15,0,0,1-.5,1c-.35.51-.73,1-1.07,1.52a2.44,2.44,0,0,0-.34,1.93,4.62,4.62,0,0,1,2.62-.84,4.69,4.69,0,0,1-1.56.77A2.07,2.07,0,0,0,27,30.17a23.34,23.34,0,0,0,0,4.18,28.89,28.89,0,0,0,.84,5.13A8.89,8.89,0,0,1,28,44.92ZM23.88,99.76h0c.58.14,1-.25,1.47-.44a.74.74,0,0,0,.5-1,15.26,15.26,0,0,1-.15-2.79c0-2.26.28-4.52.32-6.79.08-4.56.13-9.12.18-13.68,0-1.77,0-3.54,0-5.31a41.58,41.58,0,0,1,.32-5.58A58.67,58.67,0,0,0,27,56a72.72,72.72,0,0,1,.49-9.56,4.36,4.36,0,0,0,.11-1.35c-.33,0-.5.19-.7.32a18.62,18.62,0,0,1-6.47,2.7c-1,.2-1.18.11-1.49-.86s-.57-2-.87-3c-.57-1.88-.69-3.85-1.12-5.75,0-.2,0-.46-.28-.52-.16.15-.15.34-.19.52a70.89,70.89,0,0,1-2.08,7.72c-.51,1.74-.74,1.91-2.43,1.36A28.37,28.37,0,0,1,7.59,45.9c-.54-.29-1.13-.5-1.69-.75-.37-.16-.53,0-.5.36s0,1,.12,1.48c.59,4.3,1.28,8.59,1.67,12.92.33,3.74.73,7.47.91,11.23.09,1.64,0,3.28.24,4.92.31,2.18.63,4.37.78,6.56.29,4.43.69,8.85.6,13.3,0,.75.23,1.47.26,2.21a1.31,1.31,0,0,0,1,1.22c1,.4,1.36.13,1.4-.88.08-2.27-.13-4.53-.15-6.79,0-3.76,0-7.52-.09-11.27q0-3.76-.41-7.53c-.12-1.19-.17-2.38-.25-3.58.19,1,.28,2.09.37,3.14.22,2.53.46,5.07.47,7.61,0,4.87,0,9.75.15,14.62,0,1.37,0,2.73.06,4.1,0,.6.06.65.65.59.33,0,.67-.12,1-.15s.63-.24.61-.72c-.05-1.15,0-2.3-.05-3.45,0-6.21.34-12.4.51-18.61.16-5.71.45-11.41.42-17.13,0-3.1,0-6.21.25-9.3a2.24,2.24,0,0,1,.23-1.11,1.41,1.41,0,0,1,.41.62c.5,1,.87,2,1.28,3a5.44,5.44,0,0,1,.43,2.07c.05,3.67.23,7.32.63,11,.36,3.3.63,6.61.83,9.92.16,2.63.21,5.27.56,7.89a60.17,60.17,0,0,1,.57,7.7c0,2.51.25,5,.22,7.54,0,.77,0,.79.82.92s1.35.17,2,.25Zm4.06-53.95a27.8,27.8,0,0,0-.36,4c-.08,2.38-.11,4.78-.15,7.17A43.91,43.91,0,0,1,27,62.94a46.73,46.73,0,0,0-.39,6.59c0,4.63,0,9.25-.09,13.88,0,3.57-.16,7.13-.43,10.69a21,21,0,0,0,.08,4.19c.11.91.07.87-.67,1.31-1.49.9-3,.47-4.46.05a.4.4,0,0,1-.33-.39,5.07,5.07,0,0,1,0-.56c-.12-3.28-.25-6.57-.34-9.86,0-1.71-.31-3.4-.46-5.09-.18-2-.41-3.89-.49-5.85-.19-4.49-.62-9-1.05-13.45a61.82,61.82,0,0,1-.4-8.27,14.34,14.34,0,0,0-1.32-5.93,1.49,1.49,0,0,0-.2-.31l-.18,0c-.06,1.1-.15,2.2-.16,3.29,0,2.92,0,5.84,0,8.76-.11,5.24-.2,10.49-.44,15.73C15.27,84.46,15,91.21,15.1,98c0,.49.18,1.08,0,1.43s-.83.1-1.28.19a7.45,7.45,0,0,1-2.11.19,2.68,2.68,0,0,1-.89-.2,1.53,1.53,0,0,1-1.15-1.45,31.88,31.88,0,0,1-.17-4.37A14.79,14.79,0,0,0,9.4,92c-.18-2.88-.37-5.76-.55-8.64a44.56,44.56,0,0,0-.58-4.9,65,65,0,0,1-.6-7.88c-.16-4-.64-7.92-1-11.87-.33-3.5-.83-7-1.31-10.44-.09-.64-.14-1.29-.19-1.94,0-.35-.18-.5-.52-.5-.77,0-1.55-.07-2.31,0-.47,0-.69-.34-1-.43-.53-.15-.44-.52-.52-.86a14,14,0,0,1-.27-2.49c-.24-4-.23-7.94-.22-11.92,0-5.12,0-10.24,0-15.36,0-.71,0-1.43-.09-2.14a13.38,13.38,0,0,1,1-6.1A3.89,3.89,0,0,1,4.11,4a24,24,0,0,0,6.21-2.08A8.22,8.22,0,0,0,12.59.48c.23-.25.44-.1.63.08l1.87,1.81a1.72,1.72,0,0,0,2.29,0C18.15,1.67,19,1,19.75.29c.32-.28.6-.29.79.16a1.63,1.63,0,0,0,.76.66,21.14,21.14,0,0,0,8.3,3A2.63,2.63,0,0,1,32,5.92a19.84,19.84,0,0,1,1.37,9.19,57.93,57.93,0,0,0-.18,8.74,27.67,27.67,0,0,1,0,2.88A50.52,50.52,0,0,0,33.06,32c.08,3.1-.2,6.2-.26,9.3,0,1,0,2-.06,3.07a1.63,1.63,0,0,1-1.25,1.52,24.74,24.74,0,0,1-2.58.24,2.06,2.06,0,0,1-1-.27Z" transform="translate(-0.16 -0.1)"/><path d="M23.88,99.76a84.37,84.37,0,0,1-.49-10.3c0-3.72-.27-7.44-.42-11.16l0-.56c0-5.21-.35-10.42-.09-15.63,0,.86,0,1.72,0,2.59-.1,4,.1,8.06.25,12.09.13,3.5.29,7,.42,10.51.09,2.23.08,4.47.07,6.7a24.46,24.46,0,0,0,.29,3.52,5.92,5.92,0,0,1,0,2.22v0Z" transform="translate(-0.16 -0.1)"/><polygon points="10.96 65.26 10.96 66.15 10.95 66.15 10.95 65.26 10.96 65.26"/><path d="M11.33,67.82v.52h0v-.51Z" transform="translate(-0.16 -0.1)"/><path d="M17.79,29.46a.65.65,0,0,1-.59.7.53.53,0,0,1-.58-.58c0-.37.31-.83.58-.85s.58.38.59.73Z" transform="translate(-0.16 -0.1)"/></g><g class="cls-3"><path d="M75.7,23.23a21.4,21.4,0,0,1-4.36-.54,9.34,9.34,0,0,1-1.09-.37c-.08,0-.17-.05-.17-.17,0-.4,0-.8,0-1.24l1.57.42a28.21,28.21,0,0,0,3.5.62,10.66,10.66,0,0,0,3-.15,29.61,29.61,0,0,0,3.79-.86.33.33,0,0,1,.1,0v1.2c0,.15-.11.16-.21.2a10.39,10.39,0,0,1-1.81.52A22.31,22.31,0,0,1,75.7,23.23ZM80,23.18a.39.39,0,0,1,.4.11,7.28,7.28,0,0,1,.77.91,22.55,22.55,0,0,1,1.42,2.22,67.25,67.25,0,0,1,3,6.13.71.71,0,0,0,.27.4c-.06-.18-.07-.32-.12-.45a31.45,31.45,0,0,0-4-8,8,8,0,0,0-1.1-1.29s-.08-.07,0-.13l1.07-.32a.47.47,0,0,1,.58.15,8.64,8.64,0,0,1,1.22,1.49c.56.89,1.11,1.8,1.69,2.67a29.38,29.38,0,0,1,1.83,3A86,86,0,0,1,92.58,44c1.69,5.49,3.39,11,5.18,16.42,1.46,4.44,2.93,8.85,4.6,13.21.79,2,1.58,4.06,2.51,6a8.88,8.88,0,0,0,1.07,1.87,12.15,12.15,0,0,0,2.53,2.38.51.51,0,0,0,.35.17.13.13,0,0,0-.07-.13l-1.38-1.23a6.59,6.59,0,0,1-1.73-2.35c-.2-.49-.42-1-.62-1.43-2-5.16-3.94-10.38-5.57-15.69-1.72-5.58-3.51-11.12-5.2-16.69a85,85,0,0,0-4.63-12.12A94,94,0,0,0,84.4,25,14.52,14.52,0,0,0,83,23a2.89,2.89,0,0,0-.59-.57.38.38,0,0,1-.2-.42c.14-1.26.32-2.5.57-3.74a22.77,22.77,0,0,0,.52-2.93,2.94,2.94,0,0,1,.63-1.64s.06-.15.17-.12a.21.21,0,0,1,0,.1A10.64,10.64,0,0,1,84,16.19c-.1.62-.23,1.24-.35,1.86-.07.36,0,.51.4.57a3.31,3.31,0,0,0,.89.07.28.28,0,0,0,.27-.1.75.75,0,0,0-.36-.1,4.25,4.25,0,0,1-.78-.2c-.17-.05-.19-.12-.12-.27a5.55,5.55,0,0,0,.29-1,10.31,10.31,0,0,0-.12-5.26.26.26,0,0,1,.2-.37.82.82,0,0,1,.22,0h2a4.55,4.55,0,0,1,1,.12,9.17,9.17,0,0,1,3,1.43s.07.1.13,0,0-.13,0-.22a10.34,10.34,0,0,0-2-1.22,4.39,4.39,0,0,0-1.46-.39,24.52,24.52,0,0,0-2.71,0,.53.53,0,0,0-.5.37,1.56,1.56,0,0,0-.08.68,3,3,0,0,1-.37,1.62A5.82,5.82,0,0,0,83,15.23,41.06,41.06,0,0,0,82.14,20c-.07.62,0,.49-.57.65-1.23.32-2.47.58-3.73.79a8.47,8.47,0,0,1-2.36.19c-.45,0-.88-.12-1.32-.2-1.28-.24-2.57-.47-3.84-.83-.41-.1-.37,0-.42-.48-.15-1.25-.32-2.49-.59-3.72a9,9,0,0,0-1-2.9,2.6,2.6,0,0,1-.27-1.38,1.36,1.36,0,0,0-.08-.69.57.57,0,0,0-.52-.37L65.58,11a6.43,6.43,0,0,0-4.11,1.54.5.5,0,0,0-.24.39,11.35,11.35,0,0,1,1.76-1,5.62,5.62,0,0,1,1.54-.53,20.42,20.42,0,0,1,3-.09c.28,0,.38.17.26.45a3.35,3.35,0,0,0-.16.54,11.43,11.43,0,0,0,.28,5.48c.12.43.13.45-.3.57-.18.05-.38.07-.59.12a.36.36,0,0,0-.31.13,2.43,2.43,0,0,0,1.39-.1.29.29,0,0,0,.2-.35c0-.22-.07-.44-.12-.66a14.06,14.06,0,0,1-.39-3.09c0-.3,0-.6.07-1a3,3,0,0,1,.79,1.73,13.37,13.37,0,0,0,.37,2.35c.3,1.29.46,2.6.66,3.93a2,2,0,0,1,0,.77c0,.15-.29.25-.42.39A8.47,8.47,0,0,0,68.16,24c-1.26,2-2.51,4-3.6,6-.32.63-.65,1.23-1,1.85a72.67,72.67,0,0,0-5,11.79c-1.74,5.53-3.48,11.06-5.18,16.58-1.58,5.09-3.22,10.15-5.12,15.1-.64,1.65-1.26,3.31-2,4.94a6.25,6.25,0,0,1-1.47,2.08c-.52.49-1,1-1.58,1.41,0,.06-.13.09-.16.21a.93.93,0,0,0,.41-.22,13.22,13.22,0,0,0,1.16-.94,8.88,8.88,0,0,0,2.06-2.61c.68-1.36,1.28-2.77,1.85-4.18,1.77-4.43,3.36-8.93,4.85-13.47,1.71-5.17,3.4-10.35,5-15.55,1-3.23,2-6.45,3.23-9.6A76.1,76.1,0,0,1,65,30a21.6,21.6,0,0,1,1.39-2.37c.59-.86,1.16-1.73,1.69-2.62a10.31,10.31,0,0,1,1.56-2,.59.59,0,0,1,.72-.18,5.59,5.59,0,0,0,.85.25c.08,0,.18,0,.2.12a12.1,12.1,0,0,0-1.71,2.13,30.7,30.7,0,0,0-2.25,4.24,21.9,21.9,0,0,0-1.16,2.94.7.7,0,0,0-.08.45c.13,0,.15-.17.18-.27.59-1.39,1.26-2.75,1.94-4.1a34.65,34.65,0,0,1,2.46-4.2,8.51,8.51,0,0,1,.87-1,.39.39,0,0,1,.39-.14c.71.12,1.43.24,2.15.32a12.46,12.46,0,0,0,3.11.05A23.65,23.65,0,0,0,80,23.18Z" transform="translate(-0.16 -0.1)"/><path d="M63.58,79.62c.48-3.6,1-7.18,1.33-10.79.32-3,.56-5.89.79-8.85.18-2.37.35-4.75.52-7.12q.23-3.07.55-6.15c.3-2.81.57-5.63.94-8.43a33.42,33.42,0,0,1,1.05-5.36,10.33,10.33,0,0,1,.82-2.12c.12-.18.23-.37.37-.55s.1-.15.2-.12.13.14.15.24,0,.21,0,.32c.15,0,.17-.17.18-.29a.51.51,0,0,0-.21-.55.45.45,0,0,0-.57.11,2.32,2.32,0,0,0-.34.41,7.85,7.85,0,0,0-1,2.25,32.2,32.2,0,0,0-1.17,6.25c-.2,1.76-.35,3.52-.55,5.29-.29,2.67-.57,5.35-.77,8-.17,2.15-.3,4.3-.47,6.45s-.32,4.14-.5,6.23c-.17,1.83-.35,3.66-.57,5.47-.25,2.12-.5,4.24-.79,6.35S63,80.93,62.69,83C62.34,85.51,62,88,61.6,90.43c-.17,1.11-.35,2.24-.6,3.33a.62.62,0,0,1-.17.4,2.47,2.47,0,0,0-1.24-1A3.4,3.4,0,0,0,58.24,93c-.85.07-1.69.15-2.54.18A3.76,3.76,0,0,1,54.21,93a10.32,10.32,0,0,1-2.44-1.33L50.86,91a.42.42,0,0,0-.4-.1c-.1.27.1.42.24.57a7.36,7.36,0,0,0,2.66,2,4,4,0,0,0,2.49.28,10.2,10.2,0,0,1,2.87-.25,2.47,2.47,0,0,1,2.1,1.08s0,0,.08,0a7,7,0,0,0,.4-1.22c.42-1.65.69-3.33,1-5C62.76,85.43,63.17,82.52,63.58,79.62Z" transform="translate(-0.16 -0.1)"/><path d="M101.13,91l-1.27.91a12.36,12.36,0,0,1-1.46.82,5.22,5.22,0,0,1-2.89.42c-.59,0-1.16-.12-1.74-.15a2.67,2.67,0,0,0-2.53,1.09s0,0-.1,0a2,2,0,0,1-.08-.31c-.29-1.19-.47-2.4-.66-3.63-.28-1.91-.56-3.83-.83-5.74-.32-2.25-.64-4.5-.92-6.75s-.59-4.57-.85-6.87-.52-4.59-.71-6.89c-.15-1.75-.26-3.49-.4-5.22-.17-2.22-.32-4.44-.5-6.64-.13-1.75-.28-3.49-.47-5.22-.32-3-.58-6-.94-8.92a30,30,0,0,0-1-5.24,7.42,7.42,0,0,0-1.07-2.32,3.55,3.55,0,0,0-.35-.44.43.43,0,0,0-.64-.06.53.53,0,0,0-.08.7s.06.09.11.09a.12.12,0,0,0,.07-.12,1.51,1.51,0,0,1,0-.3c0-.17.15-.21.26-.09a2.19,2.19,0,0,1,.27.35,8.43,8.43,0,0,1,.87,2,37.48,37.48,0,0,1,1.32,7.13c.2,1.66.35,3.32.54,5,.3,2.69.57,5.38.77,8.08.18,2.39.35,4.77.52,7.16.15,2.12.31,4.23.52,6.35.25,2.59.53,5.16.85,7.73.35,2.85.73,5.71,1.15,8.55s.87,5.94,1.42,8.88A18.56,18.56,0,0,0,91,94.18a.89.89,0,0,0,.2.4,2.45,2.45,0,0,1,2.08-1.11,9.15,9.15,0,0,1,2.61.19,4.12,4.12,0,0,0,2.12,0,7.31,7.31,0,0,0,3.43-2.31,1.15,1.15,0,0,0,.22-.46A.47.47,0,0,0,101.13,91Z" transform="translate(-0.16 -0.1)"/><path d="M101.56,90.52a14.61,14.61,0,0,1-.82-1.63c-1.1-2.49-2.11-5-3.08-7.54-1.08-2.84-2.14-5.68-3-8.62a140.66,140.66,0,0,1-3.34-16.28c-.3-1.93-.6-3.88-.94-5.79C90,48.22,89.48,45.82,89,43.4a43.09,43.09,0,0,0-2.06-7,2.61,2.61,0,0,0-.49-.79c-.08.17,0,.29.07.4a25.4,25.4,0,0,1,1.76,5.48q1.32,6.63,2.29,13.3c.5,3.41,1,6.82,1.72,10.2.59,2.82,1.22,5.63,2,8.38,1,3.16,2.13,6.22,3.35,9.27.87,2.19,1.79,4.35,2.84,6.47a9.24,9.24,0,0,0,1.15,1.81A.4.4,0,0,0,101.56,90.52Z" transform="translate(-0.16 -0.1)"/><path d="M51.82,88.59A118,118,0,0,0,57.3,74.78a101.09,101.09,0,0,0,3.5-15.29c.38-2.32.7-4.65,1.05-7,.47-3.15,1-6.28,1.63-9.42a27.92,27.92,0,0,1,2.12-7.17c0-.08.12-.17,0-.3a2,2,0,0,0-.47.74,36.76,36.76,0,0,0-1.68,5.34c-1.09,4.62-2,9.29-2.66,14-.54,3.53-1.12,7-1.88,10.55A89.8,89.8,0,0,1,56.67,75c-1.14,3.5-2.46,6.91-3.85,10.32l-1.25,3a15.44,15.44,0,0,1-1.11,2.23c-.06.12-.13.22,0,.32a.3.3,0,0,1,.07-.11A12.18,12.18,0,0,0,51.82,88.59Z" transform="translate(-0.16 -0.1)"/><path d="M69.18,4.87c.38-.12.38-.12.48.28a.65.65,0,0,1,0,.19c0,.67.13,1.36.16,2a2.26,2.26,0,0,0,1.19,2,6.29,6.29,0,0,0,.91.43,9.09,9.09,0,0,1,3.89,2.93c.05.06.09.15.2.18l.1-.08a9,9,0,0,1,4-3.06A6.82,6.82,0,0,0,81,9.42a2.22,2.22,0,0,0,1.24-2c0-.58.09-1.19.14-1.78a2.7,2.7,0,0,1,.1-.58c.06-.27.11-.29.38-.21s.37.12.6.07a3.49,3.49,0,0,0-.78-.42c-.12-.07-.22,0-.3.09a.63.63,0,0,0-.17.37,4.59,4.59,0,0,0-.07.67,8.84,8.84,0,0,1-.32,2.28,2.16,2.16,0,0,1-1,1.29,6.2,6.2,0,0,1-1.15.51A6.89,6.89,0,0,0,77.32,11,7.41,7.41,0,0,0,76,12.41c-.12,0-.14-.12-.19-.18A6.38,6.38,0,0,0,73.08,10c-.3-.12-.61-.24-.91-.34a5.7,5.7,0,0,1-1-.45A2.06,2.06,0,0,1,70.27,8,7.15,7.15,0,0,1,70.05,7a14,14,0,0,1-.14-1.6,1.77,1.77,0,0,0-.1-.65c0-.14-.15-.32-.31-.27a2.34,2.34,0,0,0-.91.47A1,1,0,0,0,69.18,4.87Z" transform="translate(-0.16 -0.1)"/><path d="M71,97.72A33.65,33.65,0,0,1,62.2,94.4a2.11,2.11,0,0,0-.43-.2.17.17,0,0,0-.24,0c-.05.08,0,.16.07.23a4.15,4.15,0,0,0,.67.52,17,17,0,0,0,3,1.51,31.32,31.32,0,0,0,7,1.83,16.63,16.63,0,0,0,2.81.17.51.51,0,0,0,.46-.13c-.49,0-.92-.12-1.36-.17A18.5,18.5,0,0,1,71,97.72Z" transform="translate(-0.16 -0.1)"/><path d="M90.32,94.2a1.24,1.24,0,0,0-.47.21,33.09,33.09,0,0,1-8.75,3.31,21.63,21.63,0,0,1-3.29.51,12.18,12.18,0,0,0-1.32.16c.1.16.23.12.35.12a14.42,14.42,0,0,0,2.37-.1,30.35,30.35,0,0,0,4.89-1,22.87,22.87,0,0,0,5-2,10,10,0,0,0,1.07-.67l.3-.27a.15.15,0,0,0,0-.2A.17.17,0,0,0,90.32,94.2Z" transform="translate(-0.16 -0.1)"/><path d="M112.85,84.54c.05-.14.19-.34,0-.44s-.23.13-.32.24a3.21,3.21,0,0,1-2,1.21,8,8,0,0,1-2,0,6.34,6.34,0,0,0-1.74,0,2.84,2.84,0,0,0-2.17,1.68,3.31,3.31,0,0,1-2.16,1.79l-.35.1c-.1,0-.27,0-.23.19s.16.1.28.1a2.61,2.61,0,0,0,1.74-.79,5.3,5.3,0,0,0,1-1.41A2.24,2.24,0,0,1,106.76,86a5.89,5.89,0,0,1,1.78,0,9,9,0,0,0,1.57.22c.18,0,.37,0,.55,0A2.62,2.62,0,0,0,112.85,84.54Z" transform="translate(-0.16 -0.1)"/><path d="M50,89.19c-.17,0-.33-.12-.48-.15a3.27,3.27,0,0,1-2.08-1.73,6.12,6.12,0,0,0-.43-.69,2.6,2.6,0,0,0-1.89-1.06,6.53,6.53,0,0,0-1.53,0,9.1,9.1,0,0,1-1.65,0,3.2,3.2,0,0,1-2.44-1.3c-.09-.1-.15-.3-.3-.2s-.06.25,0,.37a2.41,2.41,0,0,0,1.57,1.61,3.46,3.46,0,0,0,1.32.17A10.65,10.65,0,0,0,43.57,86a5,5,0,0,1,2.18,0,2,2,0,0,1,1.3,1c.1.18.22.37.32.54a5.57,5.57,0,0,0,.82,1.06,2.72,2.72,0,0,0,1.69.79H50c.08,0,.18,0,.2-.12A.43.43,0,0,0,50,89.19Z" transform="translate(-0.16 -0.1)"/><path d="M106.55,80.91a3.65,3.65,0,0,0,.68.35,13.41,13.41,0,0,0,2.16.64,10.57,10.57,0,0,0,4.23.12,13.43,13.43,0,0,0,4-1.61,1.71,1.71,0,0,0,.25-.22s.06-.09,0-.14-.08-.06-.15-.06a1.49,1.49,0,0,0-.49.16c-.45.24-.88.51-1.35.71a9.77,9.77,0,0,1-5.39.79,20,20,0,0,1-3.63-.89,1.72,1.72,0,0,0-.53-.15C106.43,80.83,106.41,80.83,106.55,80.91Z" transform="translate(-0.16 -0.1)"/><path d="M34.29,80.25a4,4,0,0,0,.37.26,18.28,18.28,0,0,0,2,1,9.32,9.32,0,0,0,3.09.69,12,12,0,0,0,3.63-.44,8.5,8.5,0,0,0,1.94-.7.89.89,0,0,0,.45-.41.5.5,0,0,0-.4.07,23,23,0,0,1-2.66.76,10.11,10.11,0,0,1-6.46-.57c-.43-.21-.87-.42-1.28-.66a1.6,1.6,0,0,0-.54-.23c-.08,0-.18-.06-.23.05S34.22,80.2,34.29,80.25Z" transform="translate(-0.16 -0.1)"/><path d="M60.93,7.67a11.87,11.87,0,0,1,.64-2.28,11.88,11.88,0,0,1,.78-1.92.94.94,0,0,1,.87-.5,5.3,5.3,0,0,1,2.38.62A22.64,22.64,0,0,1,67.84,5a.81.81,0,0,1,.34.58,2.45,2.45,0,0,1-.12.81,4.13,4.13,0,0,0-.14,1.88,1.4,1.4,0,0,0,.09.29c0,.08.06.16.17.15s.06-.12.08-.19c0-.43.08-.85.1-1.29s0-1.11,0-1.68A.86.86,0,0,0,68,4.7c-.25-.15-.48-.35-.71-.52a11.64,11.64,0,0,0-1.68-1,5,5,0,0,0-2.44-.48,1,1,0,0,0-.94.57,2.56,2.56,0,0,0-.21.44,19.48,19.48,0,0,0-1.06,3.24,1.74,1.74,0,0,0-.06.82S60.92,7.71,60.93,7.67Z" transform="translate(-0.16 -0.1)"/><path d="M83.75,7.87c0,.22,0,.46,0,.68,0,.06,0,.13.06.15A.16.16,0,0,0,84,8.58a1.48,1.48,0,0,0,.12-.47A4.45,4.45,0,0,0,84,6.45a3.91,3.91,0,0,1-.14-.54A.85.85,0,0,1,84.17,5a16.65,16.65,0,0,1,2.72-1.64,5.25,5.25,0,0,1,1.88-.42,1,1,0,0,1,1,.57,12.81,12.81,0,0,1,.57,1.32,18,18,0,0,1,.85,2.88,1,1,0,0,0,0-.54,17.58,17.58,0,0,0-1.25-3.88,1.1,1.1,0,0,0-1.07-.67,5.7,5.7,0,0,0-2.9.77c-.63.35-1.2.82-1.8,1.23a1.05,1.05,0,0,0-.52,1C83.7,6.41,83.71,7.15,83.75,7.87Z" transform="translate(-0.16 -0.1)"/><path d="M89.62,7.74a10.44,10.44,0,0,0-3.05.3,6.69,6.69,0,0,0-2.15.86c-.12.08-.37.17-.29.32s.3,0,.42-.09A10.58,10.58,0,0,1,89.2,8a7.17,7.17,0,0,1,1.22.1,1,1,0,0,1,.77.57c.07.12.12.24.18.37a2.83,2.83,0,0,1,.24,1.67.91.91,0,0,0,.25-.69,3,3,0,0,0-.3-1.3,1.53,1.53,0,0,0-1.22-1Z" transform="translate(-0.16 -0.1)"/><path d="M60.48,10.81a2.87,2.87,0,0,1,.39-2.1,1,1,0,0,1,.73-.55,8,8,0,0,1,2.58,0,9.55,9.55,0,0,1,3.38,1,.31.31,0,0,0,.4,0c0-.13-.15-.18-.24-.25a3.79,3.79,0,0,0-1-.55,10.8,10.8,0,0,0-2.85-.64,7.56,7.56,0,0,0-2.07,0,1.46,1.46,0,0,0-1,.48,2.67,2.67,0,0,0-.59,2A.65.65,0,0,0,60.48,10.81Z" transform="translate(-0.16 -0.1)"/><path d="M38.39,84c.06,0,.13.13.23.06s0-.18,0-.27-.08-.11-.12-.18a2.32,2.32,0,0,0-1.27-.92c-.33-.1-.68-.21-1-.29a2.7,2.7,0,0,1-1.5-1,4.18,4.18,0,0,1-.4-.68c0-.08-.09-.2-.19-.23s-.06.12-.05.17a2.87,2.87,0,0,0,2.14,2.26l.32.07a3.74,3.74,0,0,1,1.76.89A.94.94,0,0,0,38.39,84Z" transform="translate(-0.16 -0.1)"/><path d="M118,80.44a.9.9,0,0,0-.26.42,2.9,2.9,0,0,1-2.06,1.59,5.12,5.12,0,0,0-.85.24,2.32,2.32,0,0,0-1.24,1,.77.77,0,0,0-.14.27s0,.1,0,.13a.12.12,0,0,0,.14,0,.31.31,0,0,0,.11-.08,4.09,4.09,0,0,1,2.13-1A2.86,2.86,0,0,0,118,80.76.46.46,0,0,0,118,80.44Z" transform="translate(-0.16 -0.1)"/><path d="M62.35,13.6a.12.12,0,0,0,0-.17s-.06-.08-.11-.06a.57.57,0,0,0-.49.3.41.41,0,0,0,0,.49,2.06,2.06,0,0,0,.48.45A4.6,4.6,0,0,1,64,16.83l.1.2a3.28,3.28,0,0,0,1.76,1.56.35.35,0,0,0,.37,0c0-.1-.12-.1-.17-.13a4,4,0,0,1-2.11-2.28,3.54,3.54,0,0,0-1.27-1.73c-.1-.09-.2-.16-.28-.24s-.29-.18-.3-.37S62.25,13.69,62.35,13.6Z" transform="translate(-0.16 -0.1)"/><path d="M86.39,18.52a3.24,3.24,0,0,0,1.71-1.76c.05-.13.11-.25.16-.37a3.72,3.72,0,0,1,1.12-1.46,6.78,6.78,0,0,0,.76-.66.49.49,0,0,0-.25-.87c-.09,0-.19,0-.22.07s0,.13.08.18l.1,0c.19.14.19.2,0,.36a3.2,3.2,0,0,1-.27.25A4.4,4.4,0,0,0,88,16.47a2.93,2.93,0,0,1-1.12,1.45,8,8,0,0,1-1.14.7A.94.94,0,0,0,86.39,18.52Z" transform="translate(-0.16 -0.1)"/><path d="M64.78,10a3.77,3.77,0,0,1,1.34-.27,2.74,2.74,0,0,1,1.27.17c.07,0,.15.07.2,0s0-.16-.08-.21a.64.64,0,0,0-.34-.14,4.39,4.39,0,0,0-2.46.25,1.15,1.15,0,0,0-.42.31c-.18.23-.13.4.17.48l.25,0c1,.06,2,0,3,.13,0,0,.07,0,.08,0a.55.55,0,0,0-.38-.17,13.11,13.11,0,0,0-2.58-.15c-.15,0-.38.08-.41-.1S64.65,10.11,64.78,10Z" transform="translate(-0.16 -0.1)"/><path d="M87.21,10.41a16,16,0,0,0-2.19.08,1.46,1.46,0,0,0-.79.26c1.07-.07,2.13,0,3.2-.1a.39.39,0,0,0,.15,0c.33-.08.4-.27.18-.52a1.21,1.21,0,0,0-.55-.35A4.93,4.93,0,0,0,85.5,9.5a2,2,0,0,0-.83.16c-.1.05-.24.1-.19.23s.19,0,.29,0a4,4,0,0,1,2.47.12.65.65,0,0,1,.44.33A.8.8,0,0,1,87.21,10.41Z" transform="translate(-0.16 -0.1)"/><path d="M44.84,81.88a7.93,7.93,0,0,1-4.53,1.46l-1.56.07c.1.07.14.1.17.1l.22,0a8.49,8.49,0,0,0,4.92-.87,4.41,4.41,0,0,0,1.08-.77s.15-.1.09-.22-.09,0-.1,0A1.57,1.57,0,0,0,44.84,81.88Z" transform="translate(-0.16 -0.1)"/><path d="M108.35,82.56c-.4-.21-.77-.44-1.15-.68-.12-.08-.22-.22-.4-.15.77,1.31,5,2.44,6.44,1.72a.26.26,0,0,0-.2-.06c-.49,0-1,0-1.44,0A8.08,8.08,0,0,1,108.35,82.56Z" transform="translate(-0.16 -0.1)"/><path d="M66.22,11.52a9,9,0,0,0-1.64.42c-.82.27-1.57.64-2.36,1a1.14,1.14,0,0,1-1,.14c.11.28.15.32.42.28a3.34,3.34,0,0,0,1-.28c.49-.2,1-.42,1.47-.62a23.44,23.44,0,0,1,2.61-.86A.82.82,0,0,0,66.22,11.52Z" transform="translate(-0.16 -0.1)"/><path d="M90.84,13.08a.78.78,0,0,1-.6,0,5.2,5.2,0,0,1-.55-.21l-1.39-.61a10.88,10.88,0,0,0-2.41-.7.92.92,0,0,0-.47,0c0,.09,0,.1.07.1A20.72,20.72,0,0,1,89.18,13a5.77,5.77,0,0,0,1,.35,1.75,1.75,0,0,0,.4,0A.23.23,0,0,0,90.84,13.08Z" transform="translate(-0.16 -0.1)"/><path d="M82,23.13a.57.57,0,0,0-.28-.17c-.1,0-.15,0-.12.12a1.3,1.3,0,0,0,.1.15,29.3,29.3,0,0,1,2.68,3.84.24.24,0,0,0,.17.15,2.11,2.11,0,0,0-.22-.53,28.5,28.5,0,0,0-1.91-3.11A1.79,1.79,0,0,0,82,23.13Z" transform="translate(-0.16 -0.1)"/><path d="M70.37,23.23c.06-.07.18-.15.1-.25s-.2,0-.29.05a2.22,2.22,0,0,0-.53.57,26.91,26.91,0,0,0-1.89,3.07.92.92,0,0,0-.17.55l.1-.15c.28-.45.55-.9.85-1.34A23.93,23.93,0,0,1,70.37,23.23Z" transform="translate(-0.16 -0.1)"/><path d="M39.1,85.23a3.07,3.07,0,0,0-.23-.39,4.54,4.54,0,0,0-.52-.72A.38.38,0,0,0,38,84a19,19,0,0,1,1.07,1.63,2.26,2.26,0,0,0,1.29.94,1,1,0,0,0,.64.07,1.48,1.48,0,0,0-.55-.31A2.22,2.22,0,0,1,39.1,85.23Z" transform="translate(-0.16 -0.1)"/><path d="M113.6,84.25a8,8,0,0,0-.65,1,2.26,2.26,0,0,1-1.19,1l-.41.17c-.07,0-.17,0-.2.18a.37.37,0,0,0,.11,0,2.44,2.44,0,0,0,1.73-1c.33-.53.65-1.06,1-1.55a.1.1,0,0,0,0-.12A.82.82,0,0,0,113.6,84.25Z" transform="translate(-0.16 -0.1)"/><path d="M85.69,18.86a5.39,5.39,0,0,1-1.39-.15,1.17,1.17,0,0,0-.59,0,.25.25,0,0,0,.17.2,4.39,4.39,0,0,0,1.46.39.89.89,0,0,0,.43-.07c.1-.05.22-.1.19-.23S85.79,18.86,85.69,18.86Z" transform="translate(-0.16 -0.1)"/><path d="M66.2,19.16a.83.83,0,0,0,.54.14,4.4,4.4,0,0,0,1.45-.39.28.28,0,0,0,.17-.15c0-.08-.12-.07-.18-.07a12.24,12.24,0,0,1-1.91.19.13.13,0,0,0-.14.1A.15.15,0,0,0,66.2,19.16Z" transform="translate(-0.16 -0.1)"/><path d="M48.25,89.51c-.06.1,0,.18.09.25a.83.83,0,0,0,.13.14,2.22,2.22,0,0,0,1.31.42c.11,0,.25,0,.31-.17-.55-.17-1.08-.39-1.62-.61C48.42,89.49,48.32,89.41,48.25,89.51Z" transform="translate(-0.16 -0.1)"/><path d="M103.65,89.49a15.76,15.76,0,0,1-1.72.64.4.4,0,0,0,.37.19,2.24,2.24,0,0,0,1.22-.37,2.2,2.2,0,0,0,.27-.26.12.12,0,0,0,0-.16C103.77,89.46,103.7,89.48,103.65,89.49Z" transform="translate(-0.16 -0.1)"/><path d="M60.61,11.18a.15.15,0,0,0-.18-.08c-.07,0-.07.1-.07.15a.62.62,0,0,0,0,.19A2.2,2.2,0,0,0,61,12.49a.25.25,0,0,0,.37,0C61.13,12.11,60.85,11.65,60.61,11.18Z" transform="translate(-0.16 -0.1)"/><path d="M90.79,12.63a1.83,1.83,0,0,0,.87-1.18.78.78,0,0,0,0-.22.1.1,0,0,0-.07-.11.1.1,0,0,0-.13.05.25.25,0,0,0-.07.08,12.39,12.39,0,0,1-.67,1.16.32.32,0,0,0,0,.3C90.76,12.66,90.77,12.64,90.79,12.63Z" transform="translate(-0.16 -0.1)"/></g></g></g></svg>